<svg width="58" height="50" viewBox="0 0 58 50" fill="none" xmlns="http://www.w3.org/2000/svg">
<path d="M18.3123 49.7952C40.0547 49.7952 51.9439 30.7181 51.9439 14.1758C51.9439 13.6339 51.9334 13.0945 51.9105 12.5575C54.2185 10.7904 56.2246 8.58517 57.8067 6.07483C55.6888 7.07189 53.4096 7.74311 51.0186 8.04577C53.4591 6.49587 55.3328 4.04411 56.2166 1.12127C53.9327 2.55523 51.4035 3.59745 48.7106 4.16005C46.5535 1.72659 43.4827 0.204773 40.0824 0.204773C33.5547 0.204773 28.2611 5.81124 28.2611 12.7223C28.2611 13.7047 28.3648 14.6603 28.5676 15.5768C18.7433 15.0532 10.0321 10.0716 4.20272 2.49666C3.18757 4.34677 2.60221 6.49587 2.60221 8.78898C2.60221 13.1323 4.68898 16.9668 7.86236 19.2099C5.92307 19.1464 4.10132 18.5826 2.50887 17.6441C2.50713 17.6966 2.50714 17.7479 2.50714 17.804C2.50714 23.8669 6.58159 28.929 11.9904 30.0762C10.9971 30.363 9.952 30.5168 8.87347 30.5168C8.11297 30.5168 7.37205 30.4375 6.65188 30.291C8.15675 35.2653 12.5204 38.885 17.6942 38.9863C13.6485 42.3448 8.55199 44.345 3.01299 44.345C2.06005 44.345 1.11864 44.2876 0.193359 44.1717C5.4247 47.723 11.6366 49.7952 18.3129 49.7952" fill="white"/>
</svg>
